<?xml version="1.0" encoding="UTF-8" standalone="no"?>
<!-- Created with Inkscape (http://www.inkscape.org/) -->

<svg
   xmlns:dc="http://purl.org/dc/elements/1.1/"
   xmlns:cc="http://creativecommons.org/ns#"
   xmlns:rdf="http://www.w3.org/1999/02/22-rdf-syntax-ns#"
   xmlns:svg="http://www.w3.org/2000/svg"
   xmlns="http://www.w3.org/2000/svg"
   xmlns:xlink="http://www.w3.org/1999/xlink"
   xmlns:sodipodi="http://sodipodi.sourceforge.net/DTD/sodipodi-0.dtd"
   xmlns:inkscape="http://www.inkscape.org/namespaces/inkscape"
   width="251.96548"
   height="401.30658"
   id="svg2"
   version="1.1"
   inkscape:version="0.92.4 (5da689c313, 2019-01-14)"
   sodipodi:docname="BBaum.svg">
  <defs
     id="defs4">
    <linearGradient
       id="linearGradient4070">
      <stop
         style="stop-color:#352929;stop-opacity:0.88056678;"
         offset="0"
         id="stop4072" />
      <stop
         style="stop-color:#241c1c;stop-opacity:0;"
         offset="1"
         id="stop4074" />
    </linearGradient>
    <linearGradient
       inkscape:collect="always"
       id="linearGradient4062">
      <stop
         style="stop-color:#000000;stop-opacity:1;"
         offset="0"
         id="stop4064" />
      <stop
         style="stop-color:#000000;stop-opacity:0"
         offset="1"
         id="stop4066" />
    </linearGradient>
    <linearGradient
       id="linearGradient3926">
      <stop
         id="stop3928"
         offset="0"
         style="stop-color:#000000;stop-opacity:1;" />
      <stop
         id="stop3930"
         offset="1"
         style="stop-color:#ce2600;stop-opacity:1;" />
    </linearGradient>
    <linearGradient
       id="linearGradient3896">
      <stop
         style="stop-color:#ffffff;stop-opacity:1;"
         offset="0"
         id="stop3898" />
      <stop
         style="stop-color:#e50101;stop-opacity:1;"
         offset="1"
         id="stop3900" />
    </linearGradient>
    <linearGradient
       id="linearGradient3869">
      <stop
         style="stop-color:#ebb693;stop-opacity:1;"
         offset="0"
         id="stop3871" />
      <stop
         style="stop-color:#552b10;stop-opacity:0.99392712;"
         offset="1"
         id="stop3873" />
    </linearGradient>
    <linearGradient
       id="linearGradient3836">
      <stop
         style="stop-color:#2b682f;stop-opacity:1;"
         offset="0"
         id="stop3838" />
      <stop
         style="stop-color:#2b682f;stop-opacity:0.59311742;"
         offset="1"
         id="stop3840" />
    </linearGradient>
    <linearGradient
       inkscape:collect="always"
       xlink:href="#linearGradient3836"
       id="linearGradient3867"
       gradientUnits="userSpaceOnUse"
       x1="468.90256"
       y1="180.09468"
       x2="658.09418"
       y2="180.09468"
       gradientTransform="translate(444.63148,177.08177)" />
    <linearGradient
       inkscape:collect="always"
       xlink:href="#linearGradient3869"
       id="linearGradient3884"
       gradientUnits="userSpaceOnUse"
       x1="514.1496"
       y1="628.21021"
       x2="514.33081"
       y2="622.70471"
       gradientTransform="matrix(1.2260549,0,0,1.2260549,381.0051,-42.307491)" />
    <radialGradient
       inkscape:collect="always"
       xlink:href="#linearGradient3896"
       id="radialGradient3906"
       cx="648.95483"
       cy="130.8791"
       fx="648.95483"
       fy="130.8791"
       r="0.6850183"
       gradientTransform="matrix(0.19695141,-0.060491,0.0518913,0.23705155,788.12019,225.4087)"
       gradientUnits="userSpaceOnUse"
       spreadMethod="reflect" />
    <linearGradient
       inkscape:collect="always"
       xlink:href="#linearGradient3926"
       id="linearGradient3924"
       x1="648.85437"
       y1="130.9556"
       x2="648.69128"
       y2="130.16669"
       gradientUnits="userSpaceOnUse"
       gradientTransform="translate(273.86989,86.222285)" />
    <linearGradient
       inkscape:collect="always"
       xlink:href="#linearGradient4062"
       id="linearGradient4068"
       x1="560"
       y1="512.84448"
       x2="766.5"
       y2="512.84448"
       gradientUnits="userSpaceOnUse"
       gradientTransform="translate(461.95021,433.39619)" />
    <linearGradient
       inkscape:collect="always"
       xlink:href="#linearGradient4070"
       id="linearGradient4076"
       x1="554.67499"
       y1="513.34448"
       x2="827.32501"
       y2="513.34448"
       gradientUnits="userSpaceOnUse"
       gradientTransform="translate(461.95021,433.39619)" />
  </defs>
  <sodipodi:namedview
     id="base"
     pagecolor="#ffffff"
     bordercolor="#666666"
     borderopacity="1.0"
     inkscape:pageopacity="0.0"
     inkscape:pageshadow="2"
     inkscape:zoom="1.4142136"
     inkscape:cx="447.29745"
     inkscape:cy="119.79236"
     inkscape:document-units="px"
     inkscape:current-layer="layer1"
     showgrid="false"
     showguides="true"
     inkscape:guide-bbox="true"
     inkscape:window-width="1600"
     inkscape:window-height="849"
     inkscape:window-x="0"
     inkscape:window-y="31"
     inkscape:window-maximized="1"
     fit-margin-top="0"
     fit-margin-left="0"
     fit-margin-right="0"
     fit-margin-bottom="0" />
  <metadata
     id="metadata7">
    <rdf:RDF>
      <cc:Work
         rdf:about="">
        <dc:format>image/svg+xml</dc:format>
        <dc:type
           rdf:resource="http://purl.org/dc/dcmitype/StillImage" />
        <dc:title></dc:title>
      </cc:Work>
    </rdf:RDF>
  </metadata>
  <g
     inkscape:label="Ebene 1"
     inkscape:groupmode="layer"
     id="layer1"
     transform="translate(-461.95019,-433.39619)">
    <path
       style="color:#000000;display:inline;overflow:visible;visibility:visible;fill:none;stroke:#747474;stroke-width:1.51826429;stroke-linecap:round;stroke-linejoin:round;stroke-miterlimit:4;stroke-dasharray:none;stroke-dashoffset:0;stroke-opacity:1;marker:none;enable-background:accumulate"
       d="m 462.72011,773.25152 c 13.9404,-0.94551 170.62019,-2.7289 170.62019,-2.7289 l 79.8077,62.29115"
       id="path2985"
       inkscape:connector-curvature="0"
       sodipodi:nodetypes="ccc" />
    <path
       sodipodi:nodetypes="cscc"
       inkscape:connector-curvature="0"
       id="path3769"
       d="m 508.12894,771.76078 c 0,0 3.14313,-9.42368 39.45508,-9.89118 35.95845,-0.46295 39.40222,9.48117 39.40222,9.48117 -24.16221,50.64839 -74.97546,16.82261 -78.8573,0.41001 z"
       style="color:#000000;display:inline;overflow:visible;visibility:visible;fill:#d35f5f;stroke:#000000;stroke-width:1.30944502;stroke-linecap:round;stroke-linejoin:round;stroke-miterlimit:4;stroke-dasharray:none;stroke-dashoffset:0;stroke-opacity:1;marker:none;enable-background:accumulate" />
    <path
       sodipodi:type="arc"
       style="color:#000000;display:inline;overflow:visible;visibility:visible;fill:#6c5353;fill-opacity:1;fill-rule:nonzero;stroke:#000000;stroke-width:1.5;stroke-linecap:round;stroke-linejoin:round;stroke-miterlimit:4;stroke-dasharray:none;stroke-dashoffset:0;stroke-opacity:1;marker:none;enable-background:accumulate"
       id="path3767"
       sodipodi:cx="544.82574"
       sodipodi:cy="465.84796"
       sodipodi:rx="42.779961"
       sodipodi:ry="12.374369"
       d="m 512.71298,474.02371 a 42.779961,12.374369 0 0 1 3.58684,-17.39752 42.779961,12.374369 0 0 1 60.17298,0.89547 42.779961,12.374369 0 0 1 -2.60446,17.41213 42.779961,12.374369 0 0 1 -60.2155,-0.61119"
       transform="matrix(0.87296332,0,0,0.87296332,71.20729,373.76401)"
       sodipodi:start="2.4198413"
       sodipodi:end="2.3871889"
       sodipodi:open="true" />
    <path
       style="color:#000000;display:inline;overflow:visible;visibility:visible;fill:url(#linearGradient4076);fill-opacity:1;fill-rule:nonzero;stroke:url(#linearGradient4068);stroke-width:0.64999998;marker:none;enable-background:accumulate"
       d="m 544.83429,834.36218 164.85646,-4.125 c -0.28341,0.34639 -13.08382,-11.95273 -16.60214,-13.375 -3.96589,-1.60321 -131.2066,-8 -131.2066,-8 z"
       id="path4060"
       inkscape:connector-curvature="0"
       sodipodi:nodetypes="ccscc" />
    <path
       style="color:#000000;display:inline;overflow:visible;visibility:visible;fill:#d35f5f;stroke:#000000;stroke-width:1.30944502;stroke-linecap:round;stroke-linejoin:round;stroke-miterlimit:4;stroke-dasharray:none;stroke-dashoffset:0;stroke-opacity:1;marker:none;enable-background:accumulate"
       d="m 516.26259,817.70823 c 0,0 6.22661,15.1682 30.55759,15.19288 25.68425,0.026 33.54253,-13.09444 32.81934,-16.99176 0.82001,-1.11956 7.35439,-44.26544 7.35439,-44.26544 0,0 -3.86178,12.95376 -40.17373,12.48625 -35.95845,-0.46295 -38.52926,-12.12466 -38.52926,-12.12466 0,0 6.59193,46.21522 7.97167,45.70273 z"
       id="path3759"
       inkscape:connector-curvature="0"
       sodipodi:nodetypes="csccscc" />
    <path
       sodipodi:nodetypes="csssccscsscsccsscsscscsssc"
       inkscape:connector-curvature="0"
       id="path3773"
       d="m 505.875,541.23715 c 0,0 -5.5,-4.5 -2,-4.25 3.5,0.25 5.19416,0.61315 5.19416,0.61315 0,0 1.10838,1.04881 2.87615,3.87723 1.76777,2.82843 20.85965,10.96016 22.98097,13.43503 2.12132,2.47488 8.07372,7.07108 8.07372,7.07108 12.18834,-1.31624 17.92892,-7.988 20.83187,-14.14214 5.69178,-12.06635 30.70113,-16.26346 30.70113,-16.26346 l 3.11986,3.53449 c 0,0 -23.53844,5.19972 -30.99256,16.2645 -9.15726,13.5929 -12.45386,27.88882 -12.72792,27.93072 -1.39796,0.21373 0,152.73506 0,166.17009 0,13.43503 16.20545,28.99138 16.20545,28.99138 0,0 3.30176,3.22637 3.17673,3.85137 -0.125,0.625 -5.06456,0.0416 -6.18956,-0.70841 -1.125,-0.75 -3.125,-2.375 -6,-2.25 -2.875,0.125 -7.88258,5.47855 -7.88258,5.47855 0,0 -4.73786,-1.80824 -8.86396,-1.72725 -4.125,0.081 -6.11069,-3.63779 -8.98569,0.38994 -1.68446,2.35984 -4.75368,-1.73093 -4.75368,-1.73093 0,0 -4.7254,-0.64947 -4.86894,-1.01777 -0.29399,-0.75431 2.77369,-1.37001 2.77369,-1.37001 0,0 14.45616,-12.2292 14.45616,-25.66423 0,-13.43503 1.39798,-165.95646 0,-166.17009 -0.27406,-0.0419 0,-16.53225 -9.19239,-22.62742 -24.25397,-16.082 -27.51915,-19.79899 -27.51915,-19.79899"
       style="color:#000000;display:inline;overflow:visible;visibility:visible;fill:#552200;stroke:#2b1100;stroke-width:1.5;stroke-linecap:round;stroke-linejoin:round;stroke-miterlimit:4;stroke-dasharray:none;stroke-dashoffset:0;stroke-opacity:1;marker:none;enable-background:accumulate" />
    <path
       id="path3800"
       style="color:#000000;display:inline;overflow:visible;visibility:visible;fill:url(#linearGradient3884);fill-opacity:1;fill-rule:nonzero;stroke:#552200;stroke-width:1.5415659;stroke-linecap:round;stroke-linejoin:round;stroke-miterlimit:4;stroke-dashoffset:0;stroke-opacity:1;marker:none;enable-background:accumulate"
       d="m 560.48342,600.87531 c -0.39709,4.9628 19.17226,8.57289 14.78251,22.79627 -4.38974,14.22338 -27.84859,16.24625 -27.38418,-2.35481 -2.39374,15.17492 -22.06886,16.14816 -27.9364,6.13912 -5.86754,-10.00904 7.3714,-19.82289 14.76773,-23.37142 l 4.24404,-5.87914 c 1.99999,-1.49999 3.99999,-5.75 3.99999,-5.75 l 10.8125,0.4375 z"
       inkscape:connector-curvature="0"
       sodipodi:nodetypes="czczccccc" />
    <g
       id="g3817"
       transform="matrix(1.2260549,0,0,1.2260549,-68.333386,-166.63839)">
      <ellipse
         transform="matrix(0.62300924,0.34279006,-0.44320025,0.80550134,333.5429,206.82385)"
         id="path3809"
         style="color:#000000;display:inline;overflow:visible;visibility:visible;fill:#fe7562;fill-opacity:1;fill-rule:nonzero;stroke:#8c2806;stroke-width:0.60000002;stroke-miterlimit:4;stroke-dasharray:none;stroke-opacity:1;marker:none;enable-background:accumulate"
         cx="486.75"
         cy="341.09448"
         rx="3"
         ry="2.4722719" />
      <ellipse
         transform="translate(0,308.2677)"
         id="path3813"
         style="color:#000000;display:inline;overflow:visible;visibility:visible;fill:#ebb693;fill-opacity:1;fill-rule:nonzero;stroke:#8c2806;stroke-width:0.60000002;stroke-linecap:round;stroke-linejoin:round;stroke-miterlimit:4;stroke-dasharray:none;stroke-dashoffset:0;stroke-opacity:1;marker:none;enable-background:accumulate"
         cx="485.4375"
         cy="340.37573"
         rx="0.25"
         ry="0.28125" />
    </g>
    <g
       id="g3821"
       transform="matrix(1.2817222,0,0,1.2817222,-107.40173,-201.88751)">
      <ellipse
         style="color:#000000;display:inline;overflow:visible;visibility:visible;fill:#fe7562;fill-opacity:1;fill-rule:nonzero;stroke:#8c2806;stroke-width:0.60000002;stroke-miterlimit:4;stroke-dasharray:none;stroke-opacity:1;marker:none;enable-background:accumulate"
         id="path3811"
         transform="matrix(-0.56311812,0.30983697,0.40059452,0.72806689,663.46296,247.99033)"
         cx="486.75"
         cy="341.09448"
         rx="3"
         ry="2.4722719" />
      <ellipse
         style="color:#000000;display:inline;overflow:visible;visibility:visible;fill:#ebb693;fill-opacity:1;fill-rule:nonzero;stroke:#8c2806;stroke-width:0.60000002;stroke-linecap:round;stroke-linejoin:round;stroke-miterlimit:4;stroke-dasharray:none;stroke-dashoffset:0;stroke-opacity:1;marker:none;enable-background:accumulate"
         id="path3815"
         transform="translate(40.75,306.7677)"
         cx="485.4375"
         cy="340.37573"
         rx="0.25"
         ry="0.28125" />
    </g>
    <g
       id="g3858"
       transform="rotate(-6.5596997,674.13297,503.39779)">
      <path
         sodipodi:nodetypes="csscscsscssssssssssssssccsssssc"
         transform="translate(0,308.2677)"
         inkscape:connector-curvature="0"
         id="path3834"
         d="m 500.6316,123.25473 c 0,0 -3.53553,0 -4.94975,-0.70711 -1.41421,-0.70711 -15.20279,6.36396 -12.02081,10.96016 3.18198,4.59619 8.13173,6.36396 8.13173,6.36396 0,0 0,-5.65686 -6.01041,2.47487 -6.01041,8.13173 0,9.8995 0,9.8995 0,0 -18.03122,1.76776 -12.72792,6.0104 5.3033,4.24264 -3.18198,10.60661 4.24264,10.96016 7.42462,0.35355 0.7071,8.13173 0.7071,8.13173 0,0 -12.37436,11.66726 -7.77817,13.43503 4.59619,1.76776 8.13173,8.13172 6.36396,19.79899 -1.76777,11.66726 16.61701,11.66726 18.38478,11.66726 1.76776,0 6.71751,-16.26346 9.54594,-15.2028 2.82843,1.06066 7.07107,15.2028 10.96015,15.2028 3.88909,0 17.2081,0 27.51916,0 10.31106,0 25.51887,-19.07436 28.34228,-9.19239 1.41421,4.94975 24.85928,14.62845 28.99138,9.19239 3.26149,-4.29072 -1.06066,-7.42461 -0.35356,0 0.70711,7.42462 6.36397,16.26345 8.48529,16.97056 2.12132,0.70711 9.54594,24.04163 15.55634,-2.47487 6.01041,-26.51651 10.60661,-26.16295 17.67767,-32.88047 7.07107,-6.71751 9.19239,-11.66726 12.72793,-18.03122 3.53553,-6.36396 7.77817,-12.72792 -7.42462,-12.72792 -15.2028,0 -14.14216,-20.15258 -12.72793,-21.21321 0,0 -3.18198,-18.03122 -12.99308,-7.86656 0,0 -33.54877,-11.45075 -8.92723,-10.87177 19.5215,0.45905 -22.78283,10.33582 -28.99137,0 0,0 -18.03123,-20.50609 -23.68808,-19.44543 -5.65686,1.06066 -8.6013,-9.54595 -16.67502,4.24264 -8.07372,13.78858 -21.8623,14.49569 -23.98362,11.31371 -2.12132,-3.18198 -18.73833,-8.48529 -18.38478,-6.01041 z"
         style="color:#000000;display:inline;overflow:visible;visibility:visible;fill:url(#linearGradient3867);fill-opacity:1;fill-rule:nonzero;stroke:#8c2806;stroke-width:0.60000002;stroke-linecap:round;stroke-linejoin:round;stroke-miterlimit:4;stroke-dasharray:none;stroke-dashoffset:0;stroke-opacity:1;marker:none;enable-background:accumulate" />
      <path
         transform="translate(0,308.2677)"
         inkscape:connector-curvature="0"
         id="path3846"
         d="m 570.28162,164.26692 3.0052,4.41942 c 0,0 5.12653,4.06586 4.94975,-1.59099 -0.17678,-5.65686 -4.77297,-5.83363 -4.77297,-5.83363"
         style="color:#000000;display:inline;overflow:visible;visibility:visible;fill:none;stroke:#8c2806;stroke-width:0.60000002;stroke-linecap:round;stroke-linejoin:round;stroke-miterlimit:4;stroke-dasharray:none;stroke-dashoffset:0;stroke-opacity:1;marker:none;enable-background:accumulate" />
      <path
         transform="translate(0,308.2677)"
         inkscape:connector-curvature="0"
         id="path3848"
         d="m 504.52069,181.59104 c 0,5.65685 4.41942,4.41941 4.41942,4.41941"
         style="color:#000000;display:inline;overflow:visible;visibility:visible;fill:none;stroke:#8c2806;stroke-width:0.60000002;stroke-linecap:round;stroke-linejoin:round;stroke-miterlimit:4;stroke-dasharray:none;stroke-dashoffset:0;stroke-opacity:1;marker:none;enable-background:accumulate" />
      <path
         transform="translate(0,308.2677)"
         inkscape:connector-curvature="0"
         id="path3850"
         d="m 518.8396,151.539 c 3.00521,-4.77297 6.71752,-7.07107 7.07107,-4.06586 0.35355,3.0052 0.35355,4.41941 0.35355,4.41941"
         style="color:#000000;display:inline;overflow:visible;visibility:visible;fill:none;stroke:#8c2806;stroke-width:0.60000002;stroke-linecap:round;stroke-linejoin:round;stroke-miterlimit:4;stroke-dasharray:none;stroke-dashoffset:0;stroke-opacity:1;marker:none;enable-background:accumulate" />
      <path
         transform="translate(0,308.2677)"
         inkscape:connector-curvature="0"
         id="path3852"
         d="m 625.7895,194.67251 c -6.01041,11.13693 -7.77817,4.77297 -7.77817,4.77297"
         style="color:#000000;display:inline;overflow:visible;visibility:visible;fill:none;stroke:#8c2806;stroke-width:0.60000002;stroke-linecap:round;stroke-linejoin:round;stroke-miterlimit:4;stroke-dasharray:none;stroke-dashoffset:0;stroke-opacity:1;marker:none;enable-background:accumulate" />
      <path
         transform="translate(0,308.2677)"
         inkscape:connector-curvature="0"
         id="path3854"
         d="m 554.37172,197.14739 c 8.3085,-0.35356 12.9047,-2.12132 10.07627,-4.24264 -2.82843,-2.12132 -3.88909,-3.53554 -3.88909,-3.53554"
         style="color:#000000;display:inline;overflow:visible;visibility:visible;fill:none;stroke:#8c2806;stroke-width:0.60000002;stroke-linecap:round;stroke-linejoin:round;stroke-miterlimit:4;stroke-dasharray:none;stroke-dashoffset:0;stroke-opacity:1;marker:none;enable-background:accumulate" />
      <path
         transform="translate(0,308.2677)"
         inkscape:connector-curvature="0"
         id="path3856"
         d="m 561.26601,132.44712 c 0,5.48007 1.94454,11.49048 3.88909,7.07106 1.94454,-4.41941 2.12132,-4.94974 2.12132,-4.94974"
         style="color:#000000;display:inline;overflow:visible;visibility:visible;fill:none;stroke:#8c2806;stroke-width:0.60000002;stroke-linecap:round;stroke-linejoin:round;stroke-miterlimit:4;stroke-dasharray:none;stroke-dashoffset:0;stroke-opacity:1;marker:none;enable-background:accumulate" />
    </g>
    <g
       id="g4006"
       transform="matrix(1.2406962,0,0,1.4206857,-175.55974,-158.05071)">
      <path
         inkscape:connector-curvature="0"
         id="path3886"
         d="m 638.72545,447.04753 5.12653,-4.77297 c 0,0 -1.41422,2.29809 -0.35356,-1.76777 1.06066,-4.06586 3.35876,-3.35876 4.94975,-2.82843 1.59099,0.53033 4.94975,2.65165 2.82843,4.5962 -2.12132,1.94454 -4.94975,2.29809 -4.94975,2.29809 l -1.94454,4.5962"
         style="color:#000000;display:inline;overflow:visible;visibility:visible;fill:#3e2e22;fill-opacity:1;fill-rule:nonzero;stroke:none;stroke-width:0.60000002;marker:none;enable-background:accumulate" />
      <path
         sodipodi:nodetypes="cccc"
         inkscape:connector-curvature="0"
         id="path3888"
         d="m 650.90716,438.97033 c 1.93661,-1.55926 4.59262,-2.82058 7.24144,-4.08489 0,0 -6.25102,4.69634 -6.40627,4.93058 z"
         style="color:#000000;display:inline;overflow:visible;visibility:visible;fill:#e7a700;fill-opacity:1;fill-rule:nonzero;stroke:#e5a600;stroke-width:0.5;stroke-linecap:square;stroke-linejoin:round;stroke-miterlimit:4;stroke-dasharray:none;stroke-opacity:1;marker:none;enable-background:accumulate" />
      <path
         style="color:#000000;display:inline;overflow:visible;visibility:visible;fill:#e7a700;fill-opacity:1;fill-rule:nonzero;stroke:#e5a600;stroke-width:0.5;stroke-linecap:square;stroke-linejoin:round;stroke-miterlimit:4;stroke-dasharray:none;stroke-opacity:1;marker:none;enable-background:accumulate"
         d="m 652.03661,441.01837 c 0.22795,-0.081 4.63037,0.91711 7.56261,1.04628 0,0 -7.87481,-2.07477 -7.8233,-2.03639 z"
         id="path3890"
         inkscape:connector-curvature="0"
         sodipodi:nodetypes="cccc" />
      <path
         sodipodi:open="true"
         sodipodi:end="2.3871889"
         sodipodi:start="2.4198413"
         transform="matrix(1.3595194,0,0,1.0215007,-233.15896,305.17326)"
         d="m 648.32259,131.48509 a 0.68500972,0.75130093 0 0 1 0.0574,-1.05627 0.68500972,0.75130093 0 0 1 0.96352,0.0544 0.68500972,0.75130093 0 0 1 -0.0417,1.05717 0.68500972,0.75130093 0 0 1 -0.96419,-0.0371"
         sodipodi:ry="0.75130093"
         sodipodi:rx="0.68500972"
         sodipodi:cy="130.98871"
         sodipodi:cx="648.83679"
         id="path3892"
         style="color:#000000;display:inline;overflow:visible;visibility:visible;fill:url(#radialGradient3906);fill-opacity:1;fill-rule:nonzero;stroke:url(#linearGradient3924);stroke-width:0.12676536;stroke-miterlimit:4;stroke-dasharray:none;stroke-opacity:1;marker:none;enable-background:accumulate"
         sodipodi:type="arc" />
      <path
         sodipodi:nodetypes="cssc"
         inkscape:connector-curvature="0"
         id="path3932"
         d="m 648.95668,435.16646 c 7.29621,-2.32493 -6.15895,6.64947 -8.11906,6.02156 -1.2949,-0.41481 1.63788,-2.92434 3.61375,-4.14592 1.34119,-0.82919 3.54269,-1.71771 3.54269,-1.71771"
         style="color:#000000;display:inline;overflow:visible;visibility:visible;fill:none;stroke:#000000;stroke-width:0.22598749;stroke-linecap:square;stroke-linejoin:round;stroke-miterlimit:4;stroke-dasharray:none;stroke-dashoffset:0;stroke-opacity:1;marker:none;enable-background:accumulate" />
      <path
         style="color:#000000;display:inline;overflow:visible;visibility:visible;fill:none;stroke:#000000;stroke-width:0.16141964;stroke-linecap:square;stroke-linejoin:round;stroke-miterlimit:4;stroke-dasharray:none;stroke-dashoffset:0;stroke-opacity:1;marker:none;enable-background:accumulate"
         d="m 648.41506,437.6438 c 1.92602,-0.19404 2.41506,-0.40177 2.72444,-0.67989 0.81753,-0.73493 -2.46812,-1.01605 -4.48666,-0.94079 -1.37016,0.0511 -3.72978,0.46501 -3.72978,0.46501 -3.57951,0.81901 -2.71895,1.20019 2.02067,1.2847"
         id="path3934"
         inkscape:connector-curvature="0"
         sodipodi:nodetypes="csscc" />
      <path
         sodipodi:open="true"
         sodipodi:end="2.3871889"
         sodipodi:start="2.4198413"
         transform="translate(7.0625,307.79895)"
         d="m 644.66388,125.68655 a 0.28125,0.28125 0 0 1 0.0236,-0.39541 0.28125,0.28125 0 0 1 0.3956,0.0204 0.28125,0.28125 0 0 1 -0.0171,0.39575 0.28125,0.28125 0 0 1 -0.39588,-0.0139"
         sodipodi:ry="0.28125"
         sodipodi:rx="0.28125"
         sodipodi:cy="125.50073"
         sodipodi:cx="644.875"
         id="path3936"
         style="color:#000000;display:inline;overflow:visible;visibility:visible;fill:none;stroke:#000000;stroke-width:0.1;stroke-linecap:square;stroke-linejoin:round;stroke-miterlimit:4;stroke-dasharray:none;stroke-dashoffset:0;stroke-opacity:1;marker:none;enable-background:accumulate"
         sodipodi:type="arc" />
      <path
         sodipodi:type="arc"
         style="color:#000000;display:inline;overflow:visible;visibility:visible;fill:none;stroke:#000000;stroke-width:0.1;stroke-linecap:square;stroke-linejoin:round;stroke-miterlimit:4;stroke-dasharray:none;stroke-dashoffset:0;stroke-opacity:1;marker:none;enable-background:accumulate"
         id="path3938"
         sodipodi:cx="644.875"
         sodipodi:cy="125.50073"
         sodipodi:rx="0.28125"
         sodipodi:ry="0.28125"
         d="m 644.66388,125.68655 a 0.28125,0.28125 0 0 1 0.0236,-0.39541 0.28125,0.28125 0 0 1 0.3956,0.0204 0.28125,0.28125 0 0 1 -0.0171,0.39575 0.28125,0.28125 0 0 1 -0.39588,-0.0139"
         transform="matrix(1.4337239,0,0,1.4585514,-272.482,250.91063)"
         sodipodi:start="2.4198413"
         sodipodi:end="2.3871889"
         sodipodi:open="true" />
      <path
         sodipodi:open="true"
         sodipodi:end="2.3871889"
         sodipodi:start="2.4198413"
         transform="matrix(0.75360841,0,0,1,165.19748,308.1427)"
         d="m 644.66388,125.68655 a 0.28125,0.28125 0 0 1 0.0236,-0.39541 0.28125,0.28125 0 0 1 0.3956,0.0204 0.28125,0.28125 0 0 1 -0.0171,0.39575 0.28125,0.28125 0 0 1 -0.39588,-0.0139"
         sodipodi:ry="0.28125"
         sodipodi:rx="0.28125"
         sodipodi:cy="125.50073"
         sodipodi:cx="644.875"
         id="path3940"
         style="color:#000000;display:inline;overflow:visible;visibility:visible;fill:none;stroke:#000000;stroke-width:0.1;stroke-linecap:square;stroke-linejoin:round;stroke-miterlimit:4;stroke-dasharray:none;stroke-dashoffset:0;stroke-opacity:1;marker:none;enable-background:accumulate"
         sodipodi:type="arc" />
      <path
         sodipodi:type="arc"
         style="color:#000000;display:inline;overflow:visible;visibility:visible;fill:#000000;fill-opacity:1;stroke:#000000;stroke-width:0.1;stroke-linecap:square;stroke-linejoin:round;stroke-miterlimit:4;stroke-dasharray:none;stroke-dashoffset:0;stroke-opacity:1;marker:none;enable-background:accumulate"
         id="path3942"
         sodipodi:cx="644.875"
         sodipodi:cy="125.50073"
         sodipodi:rx="0.28125"
         sodipodi:ry="0.28125"
         d="m 644.66388,125.68655 a 0.28125,0.28125 0 0 1 0.0236,-0.39541 0.28125,0.28125 0 0 1 0.3956,0.0204 0.28125,0.28125 0 0 1 -0.0171,0.39575 0.28125,0.28125 0 0 1 -0.39588,-0.0139"
         transform="translate(5.3125,307.8302)"
         sodipodi:start="2.4198413"
         sodipodi:end="2.3871889"
         sodipodi:open="true" />
      <path
         sodipodi:type="arc"
         style="color:#000000;display:inline;overflow:visible;visibility:visible;fill:none;stroke:#000000;stroke-width:0.13945843;stroke-linecap:square;stroke-linejoin:round;stroke-miterlimit:4;stroke-dasharray:none;stroke-dashoffset:0;stroke-opacity:1;marker:none;enable-background:accumulate"
         id="path3944"
         sodipodi:cx="644.875"
         sodipodi:cy="125.50073"
         sodipodi:rx="0.28125"
         sodipodi:ry="0.28125"
         d="m 644.66388,125.68655 a 0.28125,0.28125 0 0 1 0.0236,-0.39541 0.28125,0.28125 0 0 1 0.3956,0.0204 0.28125,0.28125 0 0 1 -0.0171,0.39575 0.28125,0.28125 0 0 1 -0.39588,-0.0139"
         transform="matrix(0.75360841,0,0,1,165.72873,308.7052)"
         sodipodi:start="2.4198413"
         sodipodi:end="2.3871889"
         sodipodi:open="true" />
      <path
         transform="matrix(2.4966673,0,0,2.9627677,-947.46557,48.865734)"
         d="m 638.39772,129.62171 c 0.034,-0.0531 0.10788,-0.0602 0.15781,-0.0261 0.066,0.045 0.0742,0.13864 0.0294,0.20144 -0.057,0.0799 -0.17197,0.0891 -0.24856,0.0326 -0.0946,-0.0699 -0.10497,-0.20765 -0.0358,-0.29892 0.0835,-0.1102 0.24557,-0.12168 0.35234,-0.039 0.12657,0.098 0.1392,0.28559 0.0423,0.40866 -0.11315,0.14369 -0.32763,0.1575 -0.46775,0.0456 -0.16153,-0.12904 -0.17655,-0.37158 -0.0489,-0.52947 0.14562,-0.18008 0.41738,-0.19634 0.59374,-0.0522 0.11409,0.0932 0.17515,0.24002 0.16522,0.38655"
         sodipodi:t0="0.35100001"
         sodipodi:argument="-23.115234"
         sodipodi:radius="0.4728983"
         sodipodi:revolution="3.7"
         sodipodi:expansion="1.51"
         sodipodi:cy="129.68823"
         sodipodi:cx="638.46875"
         id="path3946"
         style="fill:none;stroke:#000000;stroke-width:0.06809028;stroke-linecap:butt;stroke-linejoin:miter;stroke-miterlimit:4;stroke-dasharray:none;stroke-opacity:1"
         sodipodi:type="spiral" />
      <path
         inkscape:transform-center-y="-0.091865941"
         inkscape:transform-center-x="-0.1287846"
         transform="matrix(1.4891646,0,0,1.469824,-312.8206,255.98367)"
         d="m 640.125,124.12573 -0.40604,0.052 -0.10152,0.39658 -0.17495,-0.3701 -0.40854,0.026 0.29792,-0.28075 -0.15097,-0.3805 0.35907,0.19658 0.31523,-0.26117 -0.076,0.40225 z"
         inkscape:randomized="0"
         inkscape:rounded="3.469447e-18"
         inkscape:flatsided="false"
         sodipodi:arg2="0.84698748"
         sodipodi:arg1="0.21866895"
         sodipodi:r2="0.23625083"
         sodipodi:r1="0.57622153"
         sodipodi:cy="124.00073"
         sodipodi:cx="639.5625"
         sodipodi:sides="5"
         id="path3948"
         style="color:#000000;display:inline;overflow:visible;visibility:visible;fill:none;stroke:#000000;stroke-width:0.113;stroke-linecap:square;stroke-linejoin:round;stroke-miterlimit:4;stroke-dasharray:none;stroke-dashoffset:0;stroke-opacity:1;marker:none;enable-background:accumulate"
         sodipodi:type="star" />
      <path
         inkscape:transform-center-y="0.0055045866"
         inkscape:transform-center-x="-0.019313562"
         transform="translate(7.0625,312.3927)"
         d="m 635.65625,123.34448 -0.10202,-0.15201 -0.17893,0.0387 0.11305,-0.144 -0.0921,-0.15822 0.17189,0.063 0.122,-0.13649 -0.007,0.18295 0.16752,0.0739 -0.1761,0.05 z"
         inkscape:randomized="0"
         inkscape:rounded="3.469447e-18"
         inkscape:flatsided="false"
         sodipodi:arg2="1.9541362"
         sodipodi:arg1="1.3258177"
         sodipodi:r2="0.10565458"
         sodipodi:r1="0.2576941"
         sodipodi:cy="123.09448"
         sodipodi:cx="635.59375"
         sodipodi:sides="5"
         id="path3950"
         style="color:#000000;display:inline;overflow:visible;visibility:visible;fill:none;stroke:#000000;stroke-width:0.113;stroke-linecap:square;stroke-linejoin:round;stroke-miterlimit:4;stroke-dasharray:none;stroke-dashoffset:0;stroke-opacity:1;marker:none;enable-background:accumulate"
         sodipodi:type="star" />
      <g
         transform="matrix(0.9013683,-0.28279953,0.28110787,0.89597644,-60.886174,237.29046)"
         id="g3978">
        <g
           id="g3956">
          <path
             transform="translate(0,308.2677)"
             inkscape:connector-curvature="0"
             id="path3952"
             d="m 667.86236,119.80758 c -0.45993,0.4774 -0.004,7.01332 0.0884,6.98268"
             style="color:#000000;display:inline;overflow:visible;visibility:visible;fill:none;stroke:#000000;stroke-width:0.41299999;stroke-linecap:square;stroke-linejoin:round;stroke-miterlimit:4;stroke-dasharray:none;stroke-dashoffset:0;stroke-opacity:1;marker:none;enable-background:accumulate"
             sodipodi:nodetypes="cc" />
          <path
             sodipodi:open="true"
             sodipodi:end="2.3871889"
             sodipodi:start="2.4198413"
             transform="translate(0.61871843,307.38382)"
             d="m 664.92256,127.87617 a 1.3258252,0.70710677 0 0 1 0.11116,-0.99415 1.3258252,0.70710677 0 0 1 1.86486,0.0512 1.3258252,0.70710677 0 0 1 -0.0807,0.99498 1.3258252,0.70710677 0 0 1 -1.86619,-0.0349"
             sodipodi:ry="0.70710677"
             sodipodi:rx="1.3258252"
             sodipodi:cy="127.40898"
             sodipodi:cx="665.91779"
             id="path3954"
             style="color:#000000;display:inline;overflow:visible;visibility:visible;fill:#000000;fill-opacity:1;stroke:#000000;stroke-width:0.113;stroke-linecap:square;stroke-linejoin:round;stroke-miterlimit:4;stroke-dasharray:none;stroke-dashoffset:0;stroke-opacity:1;marker:none;enable-background:accumulate"
             sodipodi:type="arc" />
        </g>
        <g
           id="g3960"
           transform="translate(6.1875,-2)">
          <path
             style="color:#000000;display:inline;overflow:visible;visibility:visible;fill:none;stroke:#000000;stroke-width:0.41299999;stroke-linecap:square;stroke-linejoin:round;stroke-miterlimit:4;stroke-dasharray:none;stroke-dashoffset:0;stroke-opacity:1;marker:none;enable-background:accumulate"
             d="m 668.125,121.71948 c -0.0884,0.35356 -0.17424,5.07078 -0.17424,5.07078"
             id="path3962"
             inkscape:connector-curvature="0"
             transform="translate(0,308.2677)"
             sodipodi:nodetypes="cc" />
          <path
             sodipodi:type="arc"
             style="color:#000000;display:inline;overflow:visible;visibility:visible;fill:#000000;fill-opacity:1;stroke:#000000;stroke-width:0.113;stroke-linecap:square;stroke-linejoin:round;stroke-miterlimit:4;stroke-dasharray:none;stroke-dashoffset:0;stroke-opacity:1;marker:none;enable-background:accumulate"
             id="path3964"
             sodipodi:cx="665.91779"
             sodipodi:cy="127.40898"
             sodipodi:rx="1.3258252"
             sodipodi:ry="0.70710677"
             d="m 664.92256,127.87617 a 1.3258252,0.70710677 0 0 1 0.11116,-0.99415 1.3258252,0.70710677 0 0 1 1.86486,0.0512 1.3258252,0.70710677 0 0 1 -0.0807,0.99498 1.3258252,0.70710677 0 0 1 -1.86619,-0.0349"
             transform="translate(0.61871843,307.38382)"
             sodipodi:start="2.4198413"
             sodipodi:end="2.3871889"
             sodipodi:open="true" />
        </g>
        <path
           style="color:#000000;display:inline;overflow:visible;visibility:visible;fill:#000000;fill-opacity:1;fill-rule:nonzero;stroke:#000000;stroke-width:0.41299999;stroke-linecap:square;stroke-linejoin:round;stroke-miterlimit:4;stroke-dasharray:none;stroke-dashoffset:0;stroke-opacity:1;marker:none;enable-background:accumulate"
           d="m 668.0625,119.71948 h 6.25"
           id="path3968"
           inkscape:connector-curvature="0"
           transform="translate(0,308.2677)" />
        <path
           inkscape:connector-curvature="0"
           id="path3970"
           d="m 668.0625,428.86218 h 6.25"
           style="color:#000000;display:inline;overflow:visible;visibility:visible;fill:#000000;fill-opacity:1;fill-rule:nonzero;stroke:#000000;stroke-width:0.41299999;stroke-linecap:square;stroke-linejoin:round;stroke-miterlimit:4;stroke-dasharray:none;stroke-dashoffset:0;stroke-opacity:1;marker:none;enable-background:accumulate" />
        <g
           transform="translate(3.0625,-3.75)"
           id="g3972">
          <path
             sodipodi:nodetypes="cc"
             transform="translate(0,308.2677)"
             inkscape:connector-curvature="0"
             id="path3974"
             d="m 668.0625,123.28198 c -0.0884,0.35356 -0.11174,3.50828 -0.11174,3.50828"
             style="color:#000000;display:inline;overflow:visible;visibility:visible;fill:none;stroke:#000000;stroke-width:0.41299999;stroke-linecap:square;stroke-linejoin:round;stroke-miterlimit:4;stroke-dasharray:none;stroke-dashoffset:0;stroke-opacity:1;marker:none;enable-background:accumulate" />
          <path
             sodipodi:open="true"
             sodipodi:end="2.3871889"
             sodipodi:start="2.4198413"
             transform="translate(0.61871843,307.38382)"
             d="m 664.92256,127.87617 a 1.3258252,0.70710677 0 0 1 0.11116,-0.99415 1.3258252,0.70710677 0 0 1 1.86486,0.0512 1.3258252,0.70710677 0 0 1 -0.0807,0.99498 1.3258252,0.70710677 0 0 1 -1.86619,-0.0349"
             sodipodi:ry="0.70710677"
             sodipodi:rx="1.3258252"
             sodipodi:cy="127.40898"
             sodipodi:cx="665.91779"
             id="path3976"
             style="color:#000000;display:inline;overflow:visible;visibility:visible;fill:#000000;fill-opacity:1;stroke:#000000;stroke-width:0.113;stroke-linecap:square;stroke-linejoin:round;stroke-miterlimit:4;stroke-dasharray:none;stroke-dashoffset:0;stroke-opacity:1;marker:none;enable-background:accumulate"
             sodipodi:type="arc" />
        </g>
      </g>
      <g
         transform="matrix(0.89683802,0,0,0.89683802,62.290626,48.162336)"
         id="g4001">
        <path
           style="color:#000000;display:inline;overflow:visible;visibility:visible;fill:#000000;fill-opacity:1;fill-rule:nonzero;stroke:#000000;stroke-width:0.41299999;stroke-linecap:square;stroke-linejoin:round;stroke-miterlimit:4;stroke-dasharray:none;stroke-dashoffset:0;stroke-opacity:1;marker:none;enable-background:accumulate"
           d="M 678,123.09448 Z"
           id="path3993"
           inkscape:connector-curvature="0"
           transform="translate(0,308.2677)" />
        <path
           style="color:#000000;display:inline;overflow:visible;visibility:visible;fill:#000000;fill-opacity:1;fill-rule:nonzero;stroke:#000000;stroke-width:0.41299999;stroke-linecap:square;stroke-linejoin:round;stroke-miterlimit:4;stroke-dasharray:none;stroke-dashoffset:0;stroke-opacity:1;marker:none;enable-background:accumulate"
           d="m 678.5625,116.21948 1,-0.3125 0.3125,5.75 z"
           id="path3997"
           inkscape:connector-curvature="0"
           transform="translate(0,308.2677)" />
        <path
           sodipodi:type="arc"
           style="color:#000000;display:inline;overflow:visible;visibility:visible;fill:#000000;fill-opacity:1;fill-rule:nonzero;stroke:#000000;stroke-width:0.41299999;stroke-linecap:square;stroke-linejoin:round;stroke-miterlimit:4;stroke-dasharray:none;stroke-dashoffset:0;stroke-opacity:1;marker:none;enable-background:accumulate"
           id="path3999"
           sodipodi:cx="680.0625"
           sodipodi:cy="123.15698"
           sodipodi:rx="0.125"
           sodipodi:ry="0.25"
           d="m 679.96867,123.32216 a 0.125,0.25 0 0 1 0.0105,-0.35149 0.125,0.25 0 0 1 0.17582,0.0181 0.125,0.25 0 0 1 -0.008,0.35177 0.125,0.25 0 0 1 -0.17595,-0.0123"
           transform="matrix(2.8480801,0,0,1,-1256.579,308.2677)"
           sodipodi:start="2.4198413"
           sodipodi:end="2.3871889"
           sodipodi:open="true" />
      </g>
    </g>
    <path
       style="color:#000000;display:inline;overflow:visible;visibility:visible;fill:#241c1c;fill-opacity:0.30618891;stroke:#803300;stroke-width:0.60827518;stroke-linecap:square;stroke-linejoin:round;stroke-miterlimit:4;stroke-dasharray:none;stroke-dashoffset:0;stroke-opacity:1;marker:none;enable-background:accumulate"
       d="m 616.41201,476.59132 c 0,0 -1.11084,1.2934 -0.6665,2.49441 6.56992,1.84376 3.50113,3.19013 9.77535,0.36955"
       id="path4058"
       inkscape:connector-curvature="0"
       sodipodi:nodetypes="ccc" />
  </g>
</svg>
